<svg xmlns="http://www.w3.org/2000/svg" viewBox="0 0 800 600" width="800" height="600" shape-rendering="crispEdges">
<defs>
  <pattern id="grid" width="24" height="24" patternUnits="userSpaceOnUse">
    <path d="M24 0H0V24" fill="none" stroke="#ffffff" stroke-opacity=".04" stroke-width="2"/>
  </pattern>
  <filter id="sticker" x="-20%" y="-20%" width="140%" height="140%">
    <feMorphology in="SourceAlpha" operator="dilate" radius="10" result="d"/>
    <feFlood flood-color="#ffffff"/><feComposite in2="d" operator="in" result="o"/>
    <feMerge><feMergeNode in="o"/><feMergeNode in="SourceGraphic"/></feMerge>
  </filter>
  <filter id="glow" x="-50%" y="-50%" width="200%" height="200%">
    <feGaussianBlur stdDeviation="24" result="b"/>
    <feMerge><feMergeNode in="b"/><feMergeNode in="SourceGraphic"/></feMerge>
  </filter>
  <filter id="shadow" x="-20%" y="-20%" width="140%" height="160%">
    <feDropShadow dx="0" dy="18" stdDeviation="16" flood-color="#000" flood-opacity=".45"/>
  </filter>
</defs>
<linearGradient id="sky" x1="0" y1="0" x2="0" y2="1"><stop offset="0" stop-color="#17123a"/><stop offset="1" stop-color="#2a1f5c"/></linearGradient>
<rect width="800" height="600" fill="url(#sky)"/><rect width="800" height="600" fill="url(#grid)"/>
<g transform="translate(376.0 66.0) scale(6)" ><rect x="2" y="0" width="1" height="1" fill="#fff3c4"/><rect x="3" y="0" width="1" height="1" fill="#fff3c4"/><rect x="4" y="0" width="1" height="1" fill="#fff3c4"/><rect x="5" y="0" width="1" height="1" fill="#fff3c4"/><rect x="1" y="1" width="1" height="1" fill="#fff3c4"/><rect x="2" y="1" width="1" height="1" fill="#fff3c4"/><rect x="3" y="1" width="1" height="1" fill="#fff3c4"/><rect x="0" y="2" width="1" height="1" fill="#fff3c4"/><rect x="1" y="2" width="1" height="1" fill="#fff3c4"/><rect x="2" y="2" width="1" height="1" fill="#fff3c4"/><rect x="0" y="3" width="1" height="1" fill="#fff3c4"/><rect x="1" y="3" width="1" height="1" fill="#fff3c4"/><rect x="2" y="3" width="1" height="1" fill="#fff3c4"/><rect x="0" y="4" width="1" height="1" fill="#fff3c4"/><rect x="1" y="4" width="1" height="1" fill="#fff3c4"/><rect x="2" y="4" width="1" height="1" fill="#fff3c4"/><rect x="0" y="5" width="1" height="1" fill="#fff3c4"/><rect x="1" y="5" width="1" height="1" fill="#fff3c4"/><rect x="2" y="5" width="1" height="1" fill="#fff3c4"/><rect x="1" y="6" width="1" height="1" fill="#fff3c4"/><rect x="2" y="6" width="1" height="1" fill="#fff3c4"/><rect x="3" y="6" width="1" height="1" fill="#fff3c4"/><rect x="2" y="7" width="1" height="1" fill="#fff3c4"/><rect x="3" y="7" width="1" height="1" fill="#fff3c4"/><rect x="4" y="7" width="1" height="1" fill="#fff3c4"/><rect x="5" y="7" width="1" height="1" fill="#fff3c4"/></g>
<rect x="0" y="420" width="800" height="180" fill="#1d1838"/><rect x="0" y="416" width="800" height="8" fill="#4a3f8a"/><rect x="-24" y="430" width="44" height="22" fill="#2b2552"/><rect x="24" y="430" width="44" height="22" fill="#2b2552"/><rect x="72" y="430" width="44" height="22" fill="#2b2552"/><rect x="120" y="430" width="44" height="22" fill="#2b2552"/><rect x="168" y="430" width="44" height="22" fill="#2b2552"/><rect x="216" y="430" width="44" height="22" fill="#2b2552"/><rect x="264" y="430" width="44" height="22" fill="#2b2552"/><rect x="312" y="430" width="44" height="22" fill="#2b2552"/><rect x="360" y="430" width="44" height="22" fill="#2b2552"/><rect x="408" y="430" width="44" height="22" fill="#2b2552"/><rect x="456" y="430" width="44" height="22" fill="#2b2552"/><rect x="504" y="430" width="44" height="22" fill="#2b2552"/><rect x="552" y="430" width="44" height="22" fill="#2b2552"/><rect x="600" y="430" width="44" height="22" fill="#2b2552"/><rect x="648" y="430" width="44" height="22" fill="#2b2552"/><rect x="696" y="430" width="44" height="22" fill="#2b2552"/><rect x="744" y="430" width="44" height="22" fill="#2b2552"/><rect x="792" y="430" width="44" height="22" fill="#2b2552"/><rect x="0" y="458" width="44" height="22" fill="#2b2552"/><rect x="48" y="458" width="44" height="22" fill="#2b2552"/><rect x="96" y="458" width="44" height="22" fill="#2b2552"/><rect x="144" y="458" width="44" height="22" fill="#2b2552"/><rect x="192" y="458" width="44" height="22" fill="#2b2552"/><rect x="240" y="458" width="44" height="22" fill="#2b2552"/><rect x="288" y="458" width="44" height="22" fill="#2b2552"/><rect x="336" y="458" width="44" height="22" fill="#2b2552"/><rect x="384" y="458" width="44" height="22" fill="#2b2552"/><rect x="432" y="458" width="44" height="22" fill="#2b2552"/><rect x="480" y="458" width="44" height="22" fill="#2b2552"/><rect x="528" y="458" width="44" height="22" fill="#2b2552"/><rect x="576" y="458" width="44" height="22" fill="#2b2552"/><rect x="624" y="458" width="44" height="22" fill="#2b2552"/><rect x="672" y="458" width="44" height="22" fill="#2b2552"/><rect x="720" y="458" width="44" height="22" fill="#2b2552"/><rect x="768" y="458" width="44" height="22" fill="#2b2552"/><rect x="816" y="458" width="44" height="22" fill="#2b2552"/><rect x="-24" y="486" width="44" height="22" fill="#2b2552"/><rect x="24" y="486" width="44" height="22" fill="#2b2552"/><rect x="72" y="486" width="44" height="22" fill="#2b2552"/><rect x="120" y="486" width="44" height="22" fill="#2b2552"/><rect x="168" y="486" width="44" height="22" fill="#2b2552"/><rect x="216" y="486" width="44" height="22" fill="#2b2552"/><rect x="264" y="486" width="44" height="22" fill="#2b2552"/><rect x="312" y="486" width="44" height="22" fill="#2b2552"/><rect x="360" y="486" width="44" height="22" fill="#2b2552"/><rect x="408" y="486" width="44" height="22" fill="#2b2552"/><rect x="456" y="486" width="44" height="22" fill="#2b2552"/><rect x="504" y="486" width="44" height="22" fill="#2b2552"/><rect x="552" y="486" width="44" height="22" fill="#2b2552"/><rect x="600" y="486" width="44" height="22" fill="#2b2552"/><rect x="648" y="486" width="44" height="22" fill="#2b2552"/><rect x="696" y="486" width="44" height="22" fill="#2b2552"/><rect x="744" y="486" width="44" height="22" fill="#2b2552"/><rect x="792" y="486" width="44" height="22" fill="#2b2552"/><rect x="0" y="514" width="44" height="22" fill="#2b2552"/><rect x="48" y="514" width="44" height="22" fill="#2b2552"/><rect x="96" y="514" width="44" height="22" fill="#2b2552"/><rect x="144" y="514" width="44" height="22" fill="#2b2552"/><rect x="192" y="514" width="44" height="22" fill="#2b2552"/><rect x="240" y="514" width="44" height="22" fill="#2b2552"/><rect x="288" y="514" width="44" height="22" fill="#2b2552"/><rect x="336" y="514" width="44" height="22" fill="#2b2552"/><rect x="384" y="514" width="44" height="22" fill="#2b2552"/><rect x="432" y="514" width="44" height="22" fill="#2b2552"/><rect x="480" y="514" width="44" height="22" fill="#2b2552"/><rect x="528" y="514" width="44" height="22" fill="#2b2552"/><rect x="576" y="514" width="44" height="22" fill="#2b2552"/><rect x="624" y="514" width="44" height="22" fill="#2b2552"/><rect x="672" y="514" width="44" height="22" fill="#2b2552"/><rect x="720" y="514" width="44" height="22" fill="#2b2552"/><rect x="768" y="514" width="44" height="22" fill="#2b2552"/><rect x="816" y="514" width="44" height="22" fill="#2b2552"/><rect x="-24" y="542" width="44" height="22" fill="#2b2552"/><rect x="24" y="542" width="44" height="22" fill="#2b2552"/><rect x="72" y="542" width="44" height="22" fill="#2b2552"/><rect x="120" y="542" width="44" height="22" fill="#2b2552"/><rect x="168" y="542" width="44" height="22" fill="#2b2552"/><rect x="216" y="542" width="44" height="22" fill="#2b2552"/><rect x="264" y="542" width="44" height="22" fill="#2b2552"/><rect x="312" y="542" width="44" height="22" fill="#2b2552"/><rect x="360" y="542" width="44" height="22" fill="#2b2552"/><rect x="408" y="542" width="44" height="22" fill="#2b2552"/><rect x="456" y="542" width="44" height="22" fill="#2b2552"/><rect x="504" y="542" width="44" height="22" fill="#2b2552"/><rect x="552" y="542" width="44" height="22" fill="#2b2552"/><rect x="600" y="542" width="44" height="22" fill="#2b2552"/><rect x="648" y="542" width="44" height="22" fill="#2b2552"/><rect x="696" y="542" width="44" height="22" fill="#2b2552"/><rect x="744" y="542" width="44" height="22" fill="#2b2552"/><rect x="792" y="542" width="44" height="22" fill="#2b2552"/><rect x="0" y="570" width="44" height="22" fill="#2b2552"/><rect x="48" y="570" width="44" height="22" fill="#2b2552"/><rect x="96" y="570" width="44" height="22" fill="#2b2552"/><rect x="144" y="570" width="44" height="22" fill="#2b2552"/><rect x="192" y="570" width="44" height="22" fill="#2b2552"/><rect x="240" y="570" width="44" height="22" fill="#2b2552"/><rect x="288" y="570" width="44" height="22" fill="#2b2552"/><rect x="336" y="570" width="44" height="22" fill="#2b2552"/><rect x="384" y="570" width="44" height="22" fill="#2b2552"/><rect x="432" y="570" width="44" height="22" fill="#2b2552"/><rect x="480" y="570" width="44" height="22" fill="#2b2552"/><rect x="528" y="570" width="44" height="22" fill="#2b2552"/><rect x="576" y="570" width="44" height="22" fill="#2b2552"/><rect x="624" y="570" width="44" height="22" fill="#2b2552"/><rect x="672" y="570" width="44" height="22" fill="#2b2552"/><rect x="720" y="570" width="44" height="22" fill="#2b2552"/><rect x="768" y="570" width="44" height="22" fill="#2b2552"/><rect x="816" y="570" width="44" height="22" fill="#2b2552"/>
</svg>