<svg xmlns="http://www.w3.org/2000/svg" viewBox="0 0 600 600" width="600" height="600" shape-rendering="crispEdges">
<defs>
  <pattern id="grid" width="24" height="24" patternUnits="userSpaceOnUse">
    <path d="M24 0H0V24" fill="none" stroke="#ffffff" stroke-opacity=".04" stroke-width="2"/>
  </pattern>
  <filter id="sticker" x="-20%" y="-20%" width="140%" height="140%">
    <feMorphology in="SourceAlpha" operator="dilate" radius="10" result="d"/>
    <feFlood flood-color="#ffffff"/><feComposite in2="d" operator="in" result="o"/>
    <feMerge><feMergeNode in="o"/><feMergeNode in="SourceGraphic"/></feMerge>
  </filter>
  <filter id="glow" x="-50%" y="-50%" width="200%" height="200%">
    <feGaussianBlur stdDeviation="24" result="b"/>
    <feMerge><feMergeNode in="b"/><feMergeNode in="SourceGraphic"/></feMerge>
  </filter>
  <filter id="shadow" x="-20%" y="-20%" width="140%" height="160%">
    <feDropShadow dx="0" dy="18" stdDeviation="16" flood-color="#000" flood-opacity=".45"/>
  </filter>
</defs>
<radialGradient id="bg" cx="50%" cy="45%" r="65%"><stop offset="0" stop-color="#463216"/><stop offset="1" stop-color="#15122b"/></radialGradient>
<rect width="600" height="600" fill="url(#bg)"/><rect width="600" height="600" fill="url(#grid)"/>
<g filter="url(#shadow)"><g transform="translate(144.0 223.0) scale(26)" ><rect x="2" y="0" width="1" height="1" fill="#6b4220"/><rect x="3" y="0" width="1" height="1" fill="#6b4220"/><rect x="4" y="0" width="1" height="1" fill="#6b4220"/><rect x="5" y="0" width="1" height="1" fill="#6b4220"/><rect x="6" y="0" width="1" height="1" fill="#6b4220"/><rect x="7" y="0" width="1" height="1" fill="#6b4220"/><rect x="8" y="0" width="1" height="1" fill="#6b4220"/><rect x="9" y="0" width="1" height="1" fill="#6b4220"/><rect x="1" y="1" width="1" height="1" fill="#6b4220"/><rect x="2" y="1" width="1" height="1" fill="#b57a3c"/><rect x="3" y="1" width="1" height="1" fill="#b57a3c"/><rect x="4" y="1" width="1" height="1" fill="#b57a3c"/><rect x="5" y="1" width="1" height="1" fill="#b57a3c"/><rect x="6" y="1" width="1" height="1" fill="#b57a3c"/><rect x="7" y="1" width="1" height="1" fill="#b57a3c"/><rect x="8" y="1" width="1" height="1" fill="#b57a3c"/><rect x="9" y="1" width="1" height="1" fill="#b57a3c"/><rect x="10" y="1" width="1" height="1" fill="#6b4220"/><rect x="0" y="2" width="1" height="1" fill="#6b4220"/><rect x="1" y="2" width="1" height="1" fill="#b57a3c"/><rect x="2" y="2" width="1" height="1" fill="#b57a3c"/><rect x="3" y="2" width="1" height="1" fill="#b57a3c"/><rect x="4" y="2" width="1" height="1" fill="#b57a3c"/><rect x="5" y="2" width="1" height="1" fill="#b57a3c"/><rect x="6" y="2" width="1" height="1" fill="#b57a3c"/><rect x="7" y="2" width="1" height="1" fill="#b57a3c"/><rect x="8" y="2" width="1" height="1" fill="#b57a3c"/><rect x="9" y="2" width="1" height="1" fill="#b57a3c"/><rect x="10" y="2" width="1" height="1" fill="#b57a3c"/><rect x="11" y="2" width="1" height="1" fill="#6b4220"/><rect x="0" y="3" width="1" height="1" fill="#6b4220"/><rect x="1" y="3" width="1" height="1" fill="#b57a3c"/><rect x="2" y="3" width="1" height="1" fill="#b57a3c"/><rect x="3" y="3" width="1" height="1" fill="#b57a3c"/><rect x="4" y="3" width="1" height="1" fill="#b57a3c"/><rect x="5" y="3" width="1" height="1" fill="#b57a3c"/><rect x="6" y="3" width="1" height="1" fill="#b57a3c"/><rect x="7" y="3" width="1" height="1" fill="#b57a3c"/><rect x="8" y="3" width="1" height="1" fill="#b57a3c"/><rect x="9" y="3" width="1" height="1" fill="#b57a3c"/><rect x="10" y="3" width="1" height="1" fill="#b57a3c"/><rect x="11" y="3" width="1" height="1" fill="#6b4220"/><rect x="0" y="4" width="1" height="1" fill="#c98a14"/><rect x="1" y="4" width="1" height="1" fill="#c98a14"/><rect x="2" y="4" width="1" height="1" fill="#c98a14"/><rect x="3" y="4" width="1" height="1" fill="#c98a14"/><rect x="4" y="4" width="1" height="1" fill="#c98a14"/><rect x="5" y="4" width="1" height="1" fill="#ffd54a"/><rect x="6" y="4" width="1" height="1" fill="#ffd54a"/><rect x="7" y="4" width="1" height="1" fill="#c98a14"/><rect x="8" y="4" width="1" height="1" fill="#c98a14"/><rect x="9" y="4" width="1" height="1" fill="#c98a14"/><rect x="10" y="4" width="1" height="1" fill="#c98a14"/><rect x="11" y="4" width="1" height="1" fill="#c98a14"/><rect x="0" y="5" width="1" height="1" fill="#6b4220"/><rect x="1" y="5" width="1" height="1" fill="#b57a3c"/><rect x="2" y="5" width="1" height="1" fill="#b57a3c"/><rect x="3" y="5" width="1" height="1" fill="#b57a3c"/><rect x="4" y="5" width="1" height="1" fill="#b57a3c"/><rect x="5" y="5" width="1" height="1" fill="#ffd54a"/><rect x="6" y="5" width="1" height="1" fill="#ffd54a"/><rect x="7" y="5" width="1" height="1" fill="#b57a3c"/><rect x="8" y="5" width="1" height="1" fill="#b57a3c"/><rect x="9" y="5" width="1" height="1" fill="#b57a3c"/><rect x="10" y="5" width="1" height="1" fill="#b57a3c"/><rect x="11" y="5" width="1" height="1" fill="#6b4220"/><rect x="0" y="6" width="1" height="1" fill="#6b4220"/><rect x="1" y="6" width="1" height="1" fill="#b57a3c"/><rect x="2" y="6" width="1" height="1" fill="#b57a3c"/><rect x="3" y="6" width="1" height="1" fill="#b57a3c"/><rect x="4" y="6" width="1" height="1" fill="#b57a3c"/><rect x="5" y="6" width="1" height="1" fill="#b57a3c"/><rect x="6" y="6" width="1" height="1" fill="#b57a3c"/><rect x="7" y="6" width="1" height="1" fill="#b57a3c"/><rect x="8" y="6" width="1" height="1" fill="#b57a3c"/><rect x="9" y="6" width="1" height="1" fill="#b57a3c"/><rect x="10" y="6" width="1" height="1" fill="#b57a3c"/><rect x="11" y="6" width="1" height="1" fill="#6b4220"/><rect x="0" y="7" width="1" height="1" fill="#6b4220"/><rect x="1" y="7" width="1" height="1" fill="#b57a3c"/><rect x="2" y="7" width="1" height="1" fill="#b57a3c"/><rect x="3" y="7" width="1" height="1" fill="#b57a3c"/><rect x="4" y="7" width="1" height="1" fill="#b57a3c"/><rect x="5" y="7" width="1" height="1" fill="#b57a3c"/><rect x="6" y="7" width="1" height="1" fill="#b57a3c"/><rect x="7" y="7" width="1" height="1" fill="#b57a3c"/><rect x="8" y="7" width="1" height="1" fill="#b57a3c"/><rect x="9" y="7" width="1" height="1" fill="#b57a3c"/><rect x="10" y="7" width="1" height="1" fill="#b57a3c"/><rect x="11" y="7" width="1" height="1" fill="#6b4220"/><rect x="0" y="8" width="1" height="1" fill="#6b4220"/><rect x="1" y="8" width="1" height="1" fill="#6b4220"/><rect x="2" y="8" width="1" height="1" fill="#6b4220"/><rect x="3" y="8" width="1" height="1" fill="#6b4220"/><rect x="4" y="8" width="1" height="1" fill="#6b4220"/><rect x="5" y="8" width="1" height="1" fill="#6b4220"/><rect x="6" y="8" width="1" height="1" fill="#6b4220"/><rect x="7" y="8" width="1" height="1" fill="#6b4220"/><rect x="8" y="8" width="1" height="1" fill="#6b4220"/><rect x="9" y="8" width="1" height="1" fill="#6b4220"/><rect x="10" y="8" width="1" height="1" fill="#6b4220"/><rect x="11" y="8" width="1" height="1" fill="#6b4220"/></g></g><g transform="translate(130.0 130.0) scale(10)" ><rect x="2" y="0" width="1" height="1" fill="#c98a14"/><rect x="3" y="0" width="1" height="1" fill="#c98a14"/><rect x="4" y="0" width="1" height="1" fill="#c98a14"/><rect x="5" y="0" width="1" height="1" fill="#c98a14"/><rect x="1" y="1" width="1" height="1" fill="#c98a14"/><rect x="2" y="1" width="1" height="1" fill="#ffd54a"/><rect x="3" y="1" width="1" height="1" fill="#ffd54a"/><rect x="4" y="1" width="1" height="1" fill="#ffd54a"/><rect x="5" y="1" width="1" height="1" fill="#ffd54a"/><rect x="6" y="1" width="1" height="1" fill="#c98a14"/><rect x="0" y="2" width="1" height="1" fill="#c98a14"/><rect x="1" y="2" width="1" height="1" fill="#ffd54a"/><rect x="2" y="2" width="1" height="1" fill="#ffffff"/><rect x="3" y="2" width="1" height="1" fill="#ffd54a"/><rect x="4" y="2" width="1" height="1" fill="#ffd54a"/><rect x="5" y="2" width="1" height="1" fill="#ffd54a"/><rect x="6" y="2" width="1" height="1" fill="#ffd54a"/><rect x="7" y="2" width="1" height="1" fill="#c98a14"/><rect x="0" y="3" width="1" height="1" fill="#c98a14"/><rect x="1" y="3" width="1" height="1" fill="#ffd54a"/><rect x="2" y="3" width="1" height="1" fill="#ffffff"/><rect x="3" y="3" width="1" height="1" fill="#ffd54a"/><rect x="4" y="3" width="1" height="1" fill="#c98a14"/><rect x="5" y="3" width="1" height="1" fill="#ffd54a"/><rect x="6" y="3" width="1" height="1" fill="#ffd54a"/><rect x="7" y="3" width="1" height="1" fill="#c98a14"/><rect x="0" y="4" width="1" height="1" fill="#c98a14"/><rect x="1" y="4" width="1" height="1" fill="#ffd54a"/><rect x="2" y="4" width="1" height="1" fill="#ffd54a"/><rect x="3" y="4" width="1" height="1" fill="#ffd54a"/><rect x="4" y="4" width="1" height="1" fill="#c98a14"/><rect x="5" y="4" width="1" height="1" fill="#ffd54a"/><rect x="6" y="4" width="1" height="1" fill="#ffd54a"/><rect x="7" y="4" width="1" height="1" fill="#c98a14"/><rect x="0" y="5" width="1" height="1" fill="#c98a14"/><rect x="1" y="5" width="1" height="1" fill="#ffd54a"/><rect x="2" y="5" width="1" height="1" fill="#ffd54a"/><rect x="3" y="5" width="1" height="1" fill="#ffd54a"/><rect x="4" y="5" width="1" height="1" fill="#ffd54a"/><rect x="5" y="5" width="1" height="1" fill="#ffd54a"/><rect x="6" y="5" width="1" height="1" fill="#ffd54a"/><rect x="7" y="5" width="1" height="1" fill="#c98a14"/><rect x="1" y="6" width="1" height="1" fill="#c98a14"/><rect x="2" y="6" width="1" height="1" fill="#ffd54a"/><rect x="3" y="6" width="1" height="1" fill="#ffd54a"/><rect x="4" y="6" width="1" height="1" fill="#ffd54a"/><rect x="5" y="6" width="1" height="1" fill="#ffd54a"/><rect x="6" y="6" width="1" height="1" fill="#c98a14"/><rect x="2" y="7" width="1" height="1" fill="#c98a14"/><rect x="3" y="7" width="1" height="1" fill="#c98a14"/><rect x="4" y="7" width="1" height="1" fill="#c98a14"/><rect x="5" y="7" width="1" height="1" fill="#c98a14"/></g><g transform="translate(400.0 100.0) scale(10)" ><rect x="2" y="0" width="1" height="1" fill="#c98a14"/><rect x="3" y="0" width="1" height="1" fill="#c98a14"/><rect x="4" y="0" width="1" height="1" fill="#c98a14"/><rect x="5" y="0" width="1" height="1" fill="#c98a14"/><rect x="1" y="1" width="1" height="1" fill="#c98a14"/><rect x="2" y="1" width="1" height="1" fill="#ffd54a"/><rect x="3" y="1" width="1" height="1" fill="#ffd54a"/><rect x="4" y="1" width="1" height="1" fill="#ffd54a"/><rect x="5" y="1" width="1" height="1" fill="#ffd54a"/><rect x="6" y="1" width="1" height="1" fill="#c98a14"/><rect x="0" y="2" width="1" height="1" fill="#c98a14"/><rect x="1" y="2" width="1" height="1" fill="#ffd54a"/><rect x="2" y="2" width="1" height="1" fill="#ffffff"/><rect x="3" y="2" width="1" height="1" fill="#ffd54a"/><rect x="4" y="2" width="1" height="1" fill="#ffd54a"/><rect x="5" y="2" width="1" height="1" fill="#ffd54a"/><rect x="6" y="2" width="1" height="1" fill="#ffd54a"/><rect x="7" y="2" width="1" height="1" fill="#c98a14"/><rect x="0" y="3" width="1" height="1" fill="#c98a14"/><rect x="1" y="3" width="1" height="1" fill="#ffd54a"/><rect x="2" y="3" width="1" height="1" fill="#ffffff"/><rect x="3" y="3" width="1" height="1" fill="#ffd54a"/><rect x="4" y="3" width="1" height="1" fill="#c98a14"/><rect x="5" y="3" width="1" height="1" fill="#ffd54a"/><rect x="6" y="3" width="1" height="1" fill="#ffd54a"/><rect x="7" y="3" width="1" height="1" fill="#c98a14"/><rect x="0" y="4" width="1" height="1" fill="#c98a14"/><rect x="1" y="4" width="1" height="1" fill="#ffd54a"/><rect x="2" y="4" width="1" height="1" fill="#ffd54a"/><rect x="3" y="4" width="1" height="1" fill="#ffd54a"/><rect x="4" y="4" width="1" height="1" fill="#c98a14"/><rect x="5" y="4" width="1" height="1" fill="#ffd54a"/><rect x="6" y="4" width="1" height="1" fill="#ffd54a"/><rect x="7" y="4" width="1" height="1" fill="#c98a14"/><rect x="0" y="5" width="1" height="1" fill="#c98a14"/><rect x="1" y="5" width="1" height="1" fill="#ffd54a"/><rect x="2" y="5" width="1" height="1" fill="#ffd54a"/><rect x="3" y="5" width="1" height="1" fill="#ffd54a"/><rect x="4" y="5" width="1" height="1" fill="#ffd54a"/><rect x="5" y="5" width="1" height="1" fill="#ffd54a"/><rect x="6" y="5" width="1" height="1" fill="#ffd54a"/><rect x="7" y="5" width="1" height="1" fill="#c98a14"/><rect x="1" y="6" width="1" height="1" fill="#c98a14"/><rect x="2" y="6" width="1" height="1" fill="#ffd54a"/><rect x="3" y="6" width="1" height="1" fill="#ffd54a"/><rect x="4" y="6" width="1" height="1" fill="#ffd54a"/><rect x="5" y="6" width="1" height="1" fill="#ffd54a"/><rect x="6" y="6" width="1" height="1" fill="#c98a14"/><rect x="2" y="7" width="1" height="1" fill="#c98a14"/><rect x="3" y="7" width="1" height="1" fill="#c98a14"/><rect x="4" y="7" width="1" height="1" fill="#c98a14"/><rect x="5" y="7" width="1" height="1" fill="#c98a14"/></g><g transform="translate(294.0 92.0) scale(8)" ><rect x="2" y="0" width="1" height="1" fill="#5b3fc8"/><rect x="3" y="0" width="1" height="1" fill="#a78bff"/><rect x="4" y="0" width="1" height="1" fill="#a78bff"/><rect x="5" y="0" width="1" height="1" fill="#a78bff"/><rect x="6" y="0" width="1" height="1" fill="#5b3fc8"/><rect x="1" y="1" width="1" height="1" fill="#5b3fc8"/><rect x="2" y="1" width="1" height="1" fill="#a78bff"/><rect x="3" y="1" width="1" height="1" fill="#ffffff"/><rect x="4" y="1" width="1" height="1" fill="#a78bff"/><rect x="5" y="1" width="1" height="1" fill="#a78bff"/><rect x="6" y="1" width="1" height="1" fill="#a78bff"/><rect x="7" y="1" width="1" height="1" fill="#5b3fc8"/><rect x="0" y="2" width="1" height="1" fill="#5b3fc8"/><rect x="1" y="2" width="1" height="1" fill="#a78bff"/><rect x="2" y="2" width="1" height="1" fill="#ffffff"/><rect x="3" y="2" width="1" height="1" fill="#a78bff"/><rect x="4" y="2" width="1" height="1" fill="#a78bff"/><rect x="5" y="2" width="1" height="1" fill="#a78bff"/><rect x="6" y="2" width="1" height="1" fill="#a78bff"/><rect x="7" y="2" width="1" height="1" fill="#a78bff"/><rect x="8" y="2" width="1" height="1" fill="#5b3fc8"/><rect x="1" y="3" width="1" height="1" fill="#5b3fc8"/><rect x="2" y="3" width="1" height="1" fill="#a78bff"/><rect x="3" y="3" width="1" height="1" fill="#a78bff"/><rect x="4" y="3" width="1" height="1" fill="#a78bff"/><rect x="5" y="3" width="1" height="1" fill="#a78bff"/><rect x="6" y="3" width="1" height="1" fill="#a78bff"/><rect x="7" y="3" width="1" height="1" fill="#5b3fc8"/><rect x="2" y="4" width="1" height="1" fill="#5b3fc8"/><rect x="3" y="4" width="1" height="1" fill="#a78bff"/><rect x="4" y="4" width="1" height="1" fill="#a78bff"/><rect x="5" y="4" width="1" height="1" fill="#a78bff"/><rect x="6" y="4" width="1" height="1" fill="#5b3fc8"/><rect x="3" y="5" width="1" height="1" fill="#5b3fc8"/><rect x="4" y="5" width="1" height="1" fill="#a78bff"/><rect x="5" y="5" width="1" height="1" fill="#5b3fc8"/><rect x="4" y="6" width="1" height="1" fill="#5b3fc8"/></g>
</svg>